<mxfile host="65bd71144e">
    <diagram id="F4elgVZbu_pHF8BznkAH" name="Page-1">
        <mxGraphModel dx="1284" dy="1638" grid="1" gridSize="10" guides="1" tooltips="1" connect="1" arrows="1" fold="1" page="1" pageScale="1" pageWidth="850" pageHeight="1100" math="0" shadow="0">
            <root>
                <mxCell id="0"/>
                <mxCell id="1" parent="0"/>
                <mxCell id="78" value="System" style="shape=umlFrame;whiteSpace=wrap;html=1;rounded=0;sketch=0;fontSize=14;width=60;height=30;" parent="1" vertex="1">
                    <mxGeometry x="150" y="-1020" width="580" height="880" as="geometry"/>
                </mxCell>
                <mxCell id="6" value="View menu" style="ellipse;whiteSpace=wrap;html=1;fontSize=14;" parent="1" vertex="1">
                    <mxGeometry x="265" y="-1010" width="120" height="80" as="geometry"/>
                </mxCell>
                <mxCell id="53" value="&amp;lt;&amp;lt;extend&amp;gt;&amp;gt;" style="edgeStyle=entityRelationEdgeStyle;rounded=1;sketch=0;orthogonalLoop=1;jettySize=auto;html=1;fontSize=14;endArrow=open;endFill=0;endSize=10;dashed=1;" parent="1" source="8" target="6" edge="1">
                    <mxGeometry y="-10" relative="1" as="geometry">
                        <mxPoint as="offset"/>
                    </mxGeometry>
                </mxCell>
                <mxCell id="8" value="Search food" style="ellipse;whiteSpace=wrap;html=1;fontSize=14;" parent="1" vertex="1">
                    <mxGeometry x="535" y="-1010" width="120" height="80" as="geometry"/>
                </mxCell>
                <mxCell id="51" style="edgeStyle=entityRelationEdgeStyle;rounded=1;sketch=0;orthogonalLoop=1;jettySize=auto;html=1;fontSize=14;endSize=10;sourcePerimeterSpacing=12;endArrow=classic;endFill=1;" parent="1" source="48" target="50" edge="1">
                    <mxGeometry relative="1" as="geometry"/>
                </mxCell>
                <mxCell id="52" style="edgeStyle=entityRelationEdgeStyle;rounded=1;sketch=0;orthogonalLoop=1;jettySize=auto;html=1;fontSize=14;endSize=10;sourcePerimeterSpacing=12;endArrow=classic;endFill=1;" parent="1" source="48" target="6" edge="1">
                    <mxGeometry relative="1" as="geometry"/>
                </mxCell>
                <mxCell id="48" value="User" style="shape=umlActor;verticalLabelPosition=bottom;verticalAlign=top;html=1;rounded=0;sketch=0;fontSize=14;" parent="1" vertex="1">
                    <mxGeometry x="30" y="-1000" width="30" height="60" as="geometry"/>
                </mxCell>
                <mxCell id="50" value="Manage profile" style="ellipse;whiteSpace=wrap;html=1;fontSize=14;" parent="1" vertex="1">
                    <mxGeometry x="265" y="-900" width="120" height="80" as="geometry"/>
                </mxCell>
                <mxCell id="54" value="Order food" style="ellipse;whiteSpace=wrap;html=1;fontSize=14;" parent="1" vertex="1">
                    <mxGeometry x="265" y="-790" width="120" height="80" as="geometry"/>
                </mxCell>
                <mxCell id="55" value="Book table" style="ellipse;whiteSpace=wrap;html=1;fontSize=14;" parent="1" vertex="1">
                    <mxGeometry x="265" y="-470" width="120" height="80" as="geometry"/>
                </mxCell>
                <mxCell id="57" value="Purchase" style="ellipse;whiteSpace=wrap;html=1;fontSize=14;" parent="1" vertex="1">
                    <mxGeometry x="265" y="-680" width="120" height="80" as="geometry"/>
                </mxCell>
                <mxCell id="58" value="Feedback" style="ellipse;whiteSpace=wrap;html=1;fontSize=14;" parent="1" vertex="1">
                    <mxGeometry x="265" y="-580" width="120" height="80" as="geometry"/>
                </mxCell>
                <mxCell id="79" value="&amp;lt;&amp;lt;include&amp;gt;&amp;gt;" style="edgeStyle=entityRelationEdgeStyle;rounded=1;sketch=0;orthogonalLoop=1;jettySize=auto;html=1;fontSize=14;endArrow=open;endFill=0;endSize=10;sourcePerimeterSpacing=0;targetPerimeterSpacing=0;dashed=1;" parent="1" source="59" target="54" edge="1">
                    <mxGeometry relative="1" as="geometry"/>
                </mxCell>
                <mxCell id="59" value="Confirm order" style="ellipse;whiteSpace=wrap;html=1;fontSize=14;" parent="1" vertex="1">
                    <mxGeometry x="535" y="-790" width="120" height="80" as="geometry"/>
                </mxCell>
                <mxCell id="60" value="Manage data" style="ellipse;whiteSpace=wrap;html=1;fontSize=14;" parent="1" vertex="1">
                    <mxGeometry x="265" y="-240" width="120" height="80" as="geometry"/>
                </mxCell>
                <mxCell id="62" style="edgeStyle=entityRelationEdgeStyle;rounded=1;sketch=0;orthogonalLoop=1;jettySize=auto;html=1;fontSize=14;endSize=10;sourcePerimeterSpacing=12;strokeWidth=1;endArrow=classic;endFill=1;" parent="1" source="61" target="54" edge="1">
                    <mxGeometry relative="1" as="geometry"/>
                </mxCell>
                <mxCell id="63" style="edgeStyle=entityRelationEdgeStyle;rounded=1;sketch=0;orthogonalLoop=1;jettySize=auto;html=1;fontSize=14;endSize=10;sourcePerimeterSpacing=12;endArrow=classic;endFill=1;" parent="1" source="86" target="55" edge="1">
                    <mxGeometry relative="1" as="geometry"/>
                </mxCell>
                <mxCell id="64" style="edgeStyle=entityRelationEdgeStyle;rounded=1;sketch=0;orthogonalLoop=1;jettySize=auto;html=1;fontSize=14;endSize=10;sourcePerimeterSpacing=12;endArrow=classic;endFill=1;" parent="1" source="61" target="57" edge="1">
                    <mxGeometry relative="1" as="geometry"/>
                </mxCell>
                <mxCell id="65" value="&amp;lt;&amp;lt;extend&amp;gt;&amp;gt;" style="edgeStyle=elbowEdgeStyle;rounded=1;sketch=0;orthogonalLoop=1;jettySize=auto;html=1;fontSize=14;endSize=6;startArrow=open;startFill=0;endArrow=none;endFill=0;startSize=10;dashed=1;sourcePerimeterSpacing=0;" parent="1" source="57" target="58" edge="1">
                    <mxGeometry relative="1" as="geometry">
                        <Array as="points">
                            <mxPoint x="510" y="-480"/>
                        </Array>
                    </mxGeometry>
                </mxCell>
                <mxCell id="68" style="edgeStyle=orthogonalEdgeStyle;rounded=1;sketch=0;orthogonalLoop=1;jettySize=auto;html=1;fontSize=14;endSize=10;targetPerimeterSpacing=30;sourcePerimeterSpacing=12;endArrow=block;endFill=0;" parent="1" source="61" target="48" edge="1">
                    <mxGeometry relative="1" as="geometry"/>
                </mxCell>
                <mxCell id="89" style="edgeStyle=orthogonalEdgeStyle;rounded=0;orthogonalLoop=1;jettySize=auto;html=1;startArrow=none;startFill=0;endArrow=block;endFill=0;startSize=10;sourcePerimeterSpacing=10;targetPerimeterSpacing=30;endSize=10;" parent="1" source="86" target="61" edge="1">
                    <mxGeometry relative="1" as="geometry"/>
                </mxCell>
                <mxCell id="61" value="Customer" style="shape=umlActor;verticalLabelPosition=bottom;verticalAlign=top;html=1;fontSize=14;" parent="1" vertex="1">
                    <mxGeometry x="95" y="-780" width="30" height="60" as="geometry"/>
                </mxCell>
                <mxCell id="67" style="edgeStyle=entityRelationEdgeStyle;rounded=1;sketch=0;orthogonalLoop=1;jettySize=auto;html=1;fontSize=14;endSize=10;sourcePerimeterSpacing=12;endArrow=classic;endFill=1;" parent="1" source="66" target="60" edge="1">
                    <mxGeometry relative="1" as="geometry"/>
                </mxCell>
                <mxCell id="70" style="edgeStyle=orthogonalEdgeStyle;rounded=1;sketch=0;orthogonalLoop=1;jettySize=auto;html=1;fontSize=14;endArrow=block;endFill=0;endSize=10;sourcePerimeterSpacing=12;targetPerimeterSpacing=30;" parent="1" source="66" target="48" edge="1">
                    <mxGeometry relative="1" as="geometry"/>
                </mxCell>
                <mxCell id="66" value="Restaurant&lt;br&gt;Manager" style="shape=umlActor;verticalLabelPosition=bottom;verticalAlign=top;html=1;rounded=0;sketch=0;fontSize=14;" parent="1" vertex="1">
                    <mxGeometry x="95" y="-230" width="30" height="60" as="geometry"/>
                </mxCell>
                <mxCell id="73" style="edgeStyle=orthogonalEdgeStyle;rounded=1;sketch=0;orthogonalLoop=1;jettySize=auto;html=1;fontSize=14;endArrow=none;endFill=0;endSize=10;sourcePerimeterSpacing=12;targetPerimeterSpacing=1;startArrow=none;startFill=0;startSize=10;" parent="1" source="72" target="59" edge="1">
                    <mxGeometry relative="1" as="geometry"/>
                </mxCell>
                <mxCell id="75" style="edgeStyle=orthogonalEdgeStyle;rounded=1;sketch=0;orthogonalLoop=1;jettySize=auto;html=1;fontSize=14;endArrow=block;endFill=0;endSize=10;sourcePerimeterSpacing=12;targetPerimeterSpacing=30;" parent="1" source="72" target="48" edge="1">
                    <mxGeometry relative="1" as="geometry">
                        <Array as="points">
                            <mxPoint x="45" y="-320"/>
                        </Array>
                    </mxGeometry>
                </mxCell>
                <mxCell id="72" value="Clerk&lt;br&gt;" style="shape=umlActor;verticalLabelPosition=bottom;verticalAlign=top;html=1;rounded=0;sketch=0;fontSize=14;" parent="1" vertex="1">
                    <mxGeometry x="95" y="-350" width="30" height="60" as="geometry"/>
                </mxCell>
                <mxCell id="86" value="Registered &lt;br&gt;Customer" style="shape=umlActor;verticalLabelPosition=bottom;verticalAlign=top;html=1;fontSize=14;" parent="1" vertex="1">
                    <mxGeometry x="93.5" y="-520" width="32.5" height="60" as="geometry"/>
                </mxCell>
            </root>
        </mxGraphModel>
    </diagram>
</mxfile>